<svg viewBox="0 0 381.55 321.18" xmlns="http://www.w3.org/2000/svg"><path d="m22 294.4a1 1 0 0 1 -.26-2l294.15-79.75a1 1 0 1 1 .53 1.93l-294.17 79.78a.75.75 0 0 1 -.25.04z" fill="#444545"/><path d="m359.53 294.4a.75.75 0 0 1 -.26 0l-295.27-80.08a1 1 0 0 1 -.71-1.23 1 1 0 0 1 1.23-.7l295.23 80a1 1 0 0 1 -.26 2z" fill="#444545"/><path d="m8 197.09a1 1 0 0 1 1 1v1h354.33v-1a1 1 0 0 1 1-1zm117.85 0a1 1 0 0 1 1 1v1h127.39v-1a1 1 0 0 1 1-1zm0 0a1 1 0 0 1 1 1v1h127.39v-1a1 1 0 0 1 1-1zm0 0a1 1 0 0 1 1 1v1h127.39v-1a1 1 0 0 1 1-1zm255.2-5.38a1.34 1.34 0 0 0 -.07-.18s0 0 0 0l-.05-.09a1 1 0 0 0 -.83-.44h-379.1a1 1 0 0 0 -.83.44l-.05.09s0 0 0 0a1.34 1.34 0 0 0 -.07.18.84.84 0 0 0 -.05.29v6.11a1 1 0 0 0 1 1h379.1a1 1 0 0 0 1-1v-6.11a.84.84 0 0 0 -.04-.29zm-2 5.38h-377.05v-4.09h377.1zm-253.24 0a1 1 0 0 1 1 1v1h127.43v-1a1 1 0 0 1 1-1zm0 0a1 1 0 0 1 1 1v1h127.43v-1a1 1 0 0 1 1-1zm0 0a1 1 0 0 1 1 1v1h127.43v-1a1 1 0 0 1 1-1zm-117.81 0a1 1 0 0 1 1 1v1h354.33v-1a1 1 0 0 1 1-1z" fill="#444545"/><path d="m2 192.98h377.1v4.11h-377.1z" fill="#fff"/><path d="m381.06 191.71a1.34 1.34 0 0 0 -.07-.18s0 0 0 0l-.05-.09-5.72-10.68a1 1 0 0 0 -.88-.52h-367.57a1 1 0 0 0 -.88.52l-5.72 10.66-.05.09s0 0 0 0a1.34 1.34 0 0 0 -.07.18.84.84 0 0 0 -.05.31 1 1 0 0 0 .14.51 1 1 0 0 0 .86.49h379.1a1 1 0 0 0 .86-.49 1 1 0 0 0 .14-.51.84.84 0 0 0 -.04-.29zm-378.39-.71 4.7-8.76h366.36l4.7 8.76z" fill="#444545"/><path d="m378.43 190.98h-375.76l4.7-8.76h366.36z" fill="#fff"/><path d="m124.86 199.09v13.26h-60.57a.84.84 0 0 1 .27 0l7.23 2h54.07a.69.69 0 0 0 .2 0 .2.2 0 0 0 .1 0 .37.37 0 0 0 .16-.07.7.7 0 0 0 .25-.17l.06-.07a.36.36 0 0 0 .07-.1.75.75 0 0 0 .07-.12 1 1 0 0 0 .09-.42v-14.31zm1-2h-109a1 1 0 0 0 -1 1v15.26a1 1 0 0 0 1 1h109a.69.69 0 0 0 .2 0 .2.2 0 0 0 .1 0 .37.37 0 0 0 .16-.07.7.7 0 0 0 .25-.17l.06-.07a.36.36 0 0 0 .07-.1.75.75 0 0 0 .07-.12 1 1 0 0 0 .09-.42v-15.31a1 1 0 0 0 -1-1zm-1 15.26h-107v-13.26h107zm0-13.26v13.26h-60.57a.84.84 0 0 1 .27 0l7.23 2h54.07a.69.69 0 0 0 .2 0 .2.2 0 0 0 .1 0 .37.37 0 0 0 .16-.07.7.7 0 0 0 .25-.17l.06-.07a.36.36 0 0 0 .07-.1.75.75 0 0 0 .07-.12 1 1 0 0 0 .09-.42v-14.31z" fill="#444545"/><path d="m17.86 199.09h107v13.26h-107z" fill="#fff"/><path d="m364.33 197.09h-109.09a1 1 0 0 0 -1 1v15.26a1 1 0 0 0 .09.42.75.75 0 0 0 .07.12.36.36 0 0 0 .07.1l.06.07a.7.7 0 0 0 .25.17.37.37 0 0 0 .16.07s0 0 .05 0a.73.73 0 0 0 .25 0h109.09a1 1 0 0 0 1-1v-15.21a1 1 0 0 0 -1-1zm-1 15.26h-107.09v-13.26h107.09z" fill="#444545"/><path d="m256.24 199.09h107.09v13.26h-107.09z" fill="#fff"/><path d="m9 198.09v122.09a1 1 0 0 1 -2 0v-122.09c0-.55 2-.55 2 0z" fill="#444545"/><path d="m17.77 198.09v122.09a1 1 0 0 1 -2 0v-122.09c0-.55 2-.53 2 0z" fill="#444545"/><path d="m9.01 199.09h6.76v120.09h-6.76z" fill="#fff"/><path d="m17.77 320.18a1 1 0 0 1 -1 1h-8.77a1 1 0 1 1 0-2h8.76a1 1 0 0 1 1.01 1z" fill="#444545"/><path d="m22.24 213.35v94.93a1 1 0 0 1 -2 0v-94.93c0-.55 2-.55 2 0z" fill="#444545"/><path d="m17.77 214.35h2.47v92.93h-2.47z" fill="#fff"/><path d="m22.24 308.28a1 1 0 0 1 -1 1h-4.47c-.55 0-.55-2 0-2h4.47a1 1 0 0 1 1 1z" fill="#444545"/><path d="m374.09 198.09v122.09a1 1 0 0 1 -2 0v-122.09c0-.55 2-.55 2 0z" fill="#444545"/><path d="m365.33 198.09v122.09a1 1 0 0 1 -2 0v-122.09c0-.55 2-.55 2 0z" fill="#444545"/><path d="m365.33 199.09h6.76v120.09h-6.76z" fill="#fff"/><path d="m374.09 320.18a1 1 0 0 1 -1 1h-8.76a1 1 0 0 1 0-2h8.76a1 1 0 0 1 1 1z" fill="#444545"/><path d="m360.86 213.35v94.93a1 1 0 0 1 -2 0v-94.93c0-.55 2-.55 2 0z" fill="#444545"/><path d="m360.86 214.35h2.47v92.93h-2.47z" fill="#fff"/><path d="m365.33 308.28a1 1 0 0 1 -1 1h-4.47a1 1 0 0 1 0-2h4.47a1 1 0 0 1 1 1z" fill="#444545"/><path d="m132.37 199.09-5.51 10.28v-10.28z" fill="#fff"/><path d="m134.92 198.56-.28.53-7.87 14.68a.18.18 0 0 1 0 .07.36.36 0 0 1 -.07.1l-.06.07a.7.7 0 0 1 -.25.17.37.37 0 0 1 -.16.07.2.2 0 0 1 -.1 0 .69.69 0 0 1 -.2 0 1 1 0 0 1 -.88-1.47l1.88-3.51 5.51-10.28.79-1.47c.18-.34 1.2-.49 1.35-.41a1 1 0 0 1 .34 1.45z" fill="#444545"/><path d="m254.24 199.09v10.28l-5.51-10.28z" fill="#fff"/><g fill="#444545"><path d="m255.71 214.23a1 1 0 0 1 -.47.12.73.73 0 0 1 -.25 0s0 0-.05 0a.37.37 0 0 1 -.16-.07.7.7 0 0 1 -.25-.17l-.06-.07a.36.36 0 0 1 -.07-.1.18.18 0 0 1 -.05-.07l-7.87-14.68-.28-.53a1 1 0 0 1 .41-1.35c.15-.08 1.17.07 1.35.41l.79 1.47 5.51 10.28 1.88 3.51a1 1 0 0 1 -.43 1.25z"/><path d="m45.62 187.23h-33a1 1 0 1 1 0-2h33a1 1 0 1 1 0 2z"/><path d="m29.09 187.23h-8.26a1 1 0 0 1 -1-1 5.13 5.13 0 0 1 10.26 0 1 1 0 0 1 -1 1zm-7.1-2h5.93a3.12 3.12 0 0 0 -3-2.12 3.15 3.15 0 0 0 -2.92 2.12z"/><path d="m23.39 178.31a1 1 0 0 1 -.71-.29l-21.74-21.75a1 1 0 1 1 1.41-1.41l21.75 21.74a1 1 0 0 1 0 1.42 1 1 0 0 1 -.71.29z"/><path d="m26.5 175.2a1 1 0 0 1 -.7-.29l-21.75-21.75a1 1 0 0 1 0-1.42 1 1 0 0 1 1.41 0l21.75 21.75a1 1 0 0 1 -.71 1.71z"/><path d="m1.64 153.45a1 1 0 0 1 -.7-1.71l28.16-28.16a1 1 0 0 1 1.42 0 1 1 0 0 1 0 1.41l-28.17 28.17a1 1 0 0 1 -.71.29z"/><path d="m4.76 156.56a1 1 0 0 1 -.71-.29 1 1 0 0 1 0-1.41l28.17-28.17a1 1 0 0 1 1.41 1.41l-28.17 28.17a1 1 0 0 1 -.7.29z"/><path d="m3.2 157.21a3.15 3.15 0 0 1 -2.26-.94 3.19 3.19 0 1 1 2.26.94zm0-4.4a1.16 1.16 0 0 0 -.85.35 1.2 1.2 0 0 0 0 1.7 1.24 1.24 0 0 0 1.7 0 1.2 1.2 0 0 0 0-1.7 1.18 1.18 0 0 0 -.85-.35z"/><path d="m25 179a3.2 3.2 0 0 1 -2.27-5.46 3.28 3.28 0 0 1 4.53 0 3.2 3.2 0 0 1 -2.26 5.46zm0-4.4a1.21 1.21 0 1 0 .85.36 1.2 1.2 0 0 0 -.85-.41z"/><path d="m31.37 129a3.19 3.19 0 0 1 -2.27-.94 3.2 3.2 0 1 1 4.53 0 3.16 3.16 0 0 1 -2.26.94zm-.85-2.35a1.2 1.2 0 1 0 0-1.7 1.2 1.2 0 0 0 0 1.7z"/></g><path d="m59.51 117.14-15.92 15.91-5.25-11.07-.94-1.98 9.06-9.05z" fill="#fff"/><path d="m32.51 108.19h12.8v8.54h-12.8z" fill="#fff" transform="matrix(.70710678 -.70710678 .70710678 .70710678 -68.12 60.45)"/><path d="m37.4 123.21a3.21 3.21 0 0 1 -2.26-5.47 1 1 0 0 1 1.41 0l1.56 1.55a1.31 1.31 0 0 1 .2.28l.94 2a1 1 0 0 1 -.46 1.32 3.12 3.12 0 0 1 -1.39.32zm-1.18-3a1.29 1.29 0 0 0 .33.62 1.37 1.37 0 0 0 .24.18l-.22-.44z" fill="#444545"/><path d="m37.4 121a1 1 0 0 1 -.7-.29l-6-6a1 1 0 0 1 0-1.41l9.05-9.06a1.05 1.05 0 0 1 .71-.29 1 1 0 0 1 .71.29l6 6a1 1 0 0 1 0 1.41l-9 9.06a1 1 0 0 1 -.77.29zm-4.62-7 4.62 4.62 7.6-7.62-4.62-4.63z" fill="#444545"/><path d="m43.59 134.05h-.17a1 1 0 0 1 -.73-.55l-6.19-13a1 1 0 0 1 .2-1.14l9-9.05a1 1 0 0 1 1.14-.2l13 6.19a1 1 0 0 1 .56.74 1 1 0 0 1 -.28.87l-15.82 15.85a1 1 0 0 1 -.71.29zm-5-13.84 5.28 11.13 13.9-13.91-11.12-5.28z" fill="#444545"/><path d="m33.13 125.28a1 1 0 0 1 -.71-1.71l2.72-2.72a1 1 0 0 1 1.41 1.41l-2.71 2.74a1 1 0 0 1 -.71.28z" fill="#444545"/><path d="m25 183.11a1 1 0 0 1 -1-1v-4.11a1 1 0 0 1 2 0v4.15a1 1 0 0 1 -1 .96z" fill="#444545"/><circle cx="122.32" cy="50.38" fill="#fff" r="25.78"/><circle cx="122.32" cy="50.57" fill="#e0e0e0" r="20.79"/><path d="m122.32 77.36a26.79 26.79 0 1 1 26.78-26.79 26.82 26.82 0 0 1 -26.78 26.79zm0-51.57a24.79 24.79 0 1 0 24.78 24.78 24.81 24.81 0 0 0 -24.78-24.78z" fill="#444545"/><path d="m122.32 51.57a1 1 0 0 1 -1-1v-17.77a1 1 0 0 1 2 0v17.77a1 1 0 0 1 -1 1z" fill="#444545"/><path d="m122.32 51.57a1 1 0 0 1 -.71-.29 1 1 0 0 1 0-1.41l7.77-7.77a1 1 0 0 1 1.41 1.41l-7.79 7.77a1 1 0 0 1 -.68.29z" fill="#444545"/><path d="m258.68 50.34h31.11v16.07h-31.11z" fill="#fff"/><path d="m258.68 54.24h8.05v8.05h-8.05z" fill="#f4848c"/><path d="m281.75 54.24h8.05v8.05h-8.05z" fill="#f4848c"/><path d="m289.79 67.41h-31.11a1 1 0 0 1 -1-1v-16.07a1 1 0 0 1 1-1h31.11a1 1 0 0 1 1 1v16.07a1 1 0 0 1 -1 1zm-30.11-2h29.11v-14.07h-29.11z" fill="#444545"/><path d="m289.79 63.51h-31.11a1 1 0 0 1 -1-1v-8.27a1 1 0 0 1 1-1h31.11a1 1 0 0 1 1 1v8.27a1 1 0 0 1 -1 1zm-30.11-2h29.11v-6.27h-29.11z" fill="#444545"/><circle cx="274.24" cy="58.38" fill="#fff" r="8.03"/><path d="m274.24 67.41a9 9 0 1 1 9-9 9 9 0 0 1 -9 9zm0-16.07a7 7 0 1 0 7 7 7.05 7.05 0 0 0 -7-7z" fill="#444545"/><path d="m274.24 63.51a5.14 5.14 0 1 1 5.13-5.13 5.14 5.14 0 0 1 -5.13 5.13zm0-8.27a3.14 3.14 0 1 0 3.13 3.14 3.15 3.15 0 0 0 -3.13-3.14z" fill="#444545"/><path d="m283.27 47.23h4.27v3.12h-4.27z" fill="#fff"/><path d="m287.54 51.34h-4.27a1 1 0 0 1 -1-1v-3.11a1 1 0 0 1 1-1h4.27a1 1 0 0 1 1 1v3.11a1 1 0 0 1 -1 1zm-3.27-2h2.27v-1.11h-2.27z" fill="#444545"/><path d="m260.51 47.23h9.6v3.12h-9.6z" fill="#fff"/><path d="m270.1 51.34h-9.59a1 1 0 0 1 -1-1v-3.11a1 1 0 0 1 1-1h9.59a1 1 0 0 1 1 1v3.11a1 1 0 0 1 -1 1zm-8.59-2h7.59v-1.11h-7.59z" fill="#444545"/><path d="m274.24 45.36h-3.58l-1.74 4.98h10.64l-1.75-4.98z" fill="#fff"/><path d="m279.55 51.34h-10.63a1 1 0 0 1 -.81-.42 1 1 0 0 1 -.11-.92l1.74-5a1 1 0 0 1 .94-.67h7.15a1 1 0 0 1 .95.67l1.74 5a1 1 0 0 1 -.95 1.33zm-9.22-2h7.82l-1-3h-5.73z" fill="#444545"/><path d="m2.06 24.61h54.44v54.44h-54.44z" fill="#fff"/><path d="m56.54 23.67h-54.75a1 1 0 0 0 -1 1v54.75a1 1 0 0 0 1 1h54.75a1 1 0 0 0 1-1v-54.75a1 1 0 0 0 -1-1zm-1 54.75h-52.75v-52.75h52.75z" fill="#444545"/><path d="m7.59 30.46h43.16v43.16h-43.16z" fill="#f4848c"/><path d="m36.56 74.63a1 1 0 0 1 -1-1v-6.47a1 1 0 0 1 2 0v6.47a1 1 0 0 1 -1 1z" fill="#fff"/><path d="m34.25 62.73-.92-2.14-.55-1.26-.54-1.26-6.85-15.89a1 1 0 0 0 -1.84 0l-8.85 20.55a1 1 0 0 0 .08 1 1 1 0 0 0 .84.45h17.71a1 1 0 0 0 .92-1.4zm-17.11-.6 7.33-17 6.68 15.5.54 1.26.12.27z" fill="#fff"/><path d="m29.42 67.16 7.14-16.59 7.15 16.59z" fill="#f4848c"/><path d="m44.62 66.76-7.14-16.58a1 1 0 0 0 -1.84 0l-3.4 7.89-1.09 2.53-.66 1.53-.86 2-1.13 2.63a1 1 0 0 0 .08.95 1 1 0 0 0 .83.45h14.3a1 1 0 0 0 .83-.45 1 1 0 0 0 .08-.95zm-13.69-.6.88-2 1.52-3.54 3.23-7.49 5.63 13.06z" fill="#fff"/><path d="m24.48 74.63a1 1 0 0 1 -1-1v-10.5a1 1 0 0 1 2 0v10.5a1 1 0 0 1 -1 1z" fill="#fff"/><path d="m51.46 25.38a1 1 0 0 1 -1.42 0l-20.88-20.88-.59.59-.76.77-17.81 17.81-1.71 1.71a1 1 0 1 1 -1.42-1.38l20.29-20.33 1-1a1 1 0 0 0 -.09.42 1.09 1.09 0 0 0 2.17 0 1 1 0 0 0 -.09-.42l1 1 .77.76 19.25 19.24.29.29a1 1 0 0 1 0 1.42z" fill="#444545"/><path d="m29.16 1a2.09 2.09 0 0 0 -2.08 2.09 2.2 2.2 0 0 0 .08.58 2.09 2.09 0 0 0 1.41 1.42 2.22 2.22 0 0 0 1.18 0 2.11 2.11 0 0 0 1.42-1.41 2.21 2.21 0 0 0 .08-.59 2.09 2.09 0 0 0 -2.09-2.09zm1.09 2.09a1.09 1.09 0 0 1 -2.17 0 1 1 0 0 1 .09-.42l.27-.27a1 1 0 0 1 1.42 0l.29.29a1 1 0 0 1 .1.4z" fill="#fff"/><path d="m29.16 0a3.09 3.09 0 0 0 -2.77 4.44 3.08 3.08 0 0 0 2.77 1.73 3.09 3.09 0 1 0 0-6.17zm1.09 3.09a1.09 1.09 0 0 1 -2.17 0 1 1 0 0 1 .09-.42 1.07 1.07 0 0 1 2 0 1 1 0 0 1 .08.42z" fill="#444545"/><path d="m293.67 73.86h-117.19a1 1 0 0 1 -1-1v-4.75a1 1 0 0 1 1-1h117.19a1 1 0 0 1 1 1v4.75a1 1 0 0 1 -1 1zm-116.19-2h115.19v-2.75h-115.19z" fill="#444545"/><path d="m181.23 78.61a1 1 0 0 1 -1-1v-4.75a1 1 0 1 1 2 0v4.75a1 1 0 0 1 -1 1z" fill="#444545"/><path d="m288.92 78.61a1 1 0 0 1 -1-1v-4.75a1 1 0 0 1 2 0v4.75a1 1 0 0 1 -1 1z" fill="#444545"/><path d="m199.24 40.24h4.56v23.3h-4.56z" fill="#fff"/><path d="m199.24 63.54h4.56v4.56h-4.56z" fill="#f4848c"/><path d="m203.8 69.11h-4.56a1 1 0 0 1 -1-1v-27.9a1 1 0 0 1 1-1h4.56a1 1 0 0 1 1 1v27.9a1 1 0 0 1 -1 1zm-3.56-2h2.56v-25.9h-2.56z" fill="#444545"/><path d="m203.8 64.54h-4.56a1 1 0 1 1 0-2h4.56a1 1 0 0 1 0 2z" fill="#444545"/><path d="m218.67 35.07h8.25v33.03h-8.25z" fill="#fff"/><path d="m227.15 69.11h-8.73a1 1 0 0 1 -1-1v-33.29a1 1 0 0 1 1-1h8.73a1 1 0 0 1 1 1v33.29a1 1 0 0 1 -1 1zm-7.73-2h6.73v-31.29h-6.73z" fill="#444545"/><path d="m227.15 56.83a5.36 5.36 0 1 1 0-10.72 1 1 0 0 1 1 1v8.72a1 1 0 0 1 -1 1zm-1-8.57a3.36 3.36 0 0 0 0 6.42z" fill="#444545"/><path d="m249.55 65-13.13-38.5a1 1 0 0 0 -.5-.57 1 1 0 0 0 -.77-.05l-5.94 2a1 1 0 0 0 -.62 1.27l13.12 38.49a1 1 0 0 0 .51.58 1 1 0 0 0 .44.1 1.13 1.13 0 0 0 .32-.05l6-2a1 1 0 0 0 .57-1.27zm-6.27 1.08-12.48-36.58 4-1.38 12.48 36.6z" fill="#444545"/><path d="m236.92 27.77h4.28v38.67h-4.28z" fill="#fff" transform="matrix(.94653671 -.32259612 .32259612 .94653671 -2.42 79.62)"/><path d="m233.9 34.88h6.28v12.56h-6.28z" fill="#90d1b8" transform="matrix(.94648039 -.32276132 .32276132 .94648039 -.6 78.7)"/><path d="m236.09 49.12a1.13 1.13 0 0 1 -.44-.1 1 1 0 0 1 -.5-.58l-4.06-11.89a1.05 1.05 0 0 1 0-.76 1 1 0 0 1 .58-.51l5.94-2a1 1 0 0 1 1.27.62l4 11.89a1 1 0 0 1 -.62 1.27l-5.94 2a1 1 0 0 1 -.23.06zm-2.78-12.27 3.41 10 4.05-1.38-3.41-10z" fill="#444545"/><path d="m187.96 39.24h7v21.86h-7z" fill="#fff"/><path d="m187.96 32.24h7v7h-7z" fill="#a6d3f1"/><path d="m187.96 61.11h7v7h-7z" fill="#a6d3f1"/><path d="m195 69.11h-7a1 1 0 0 1 -1-1v-35.87a1 1 0 0 1 1-1h7a1 1 0 0 1 1 1v35.87a1 1 0 0 1 -1 1zm-6-2h5v-33.87h-5z" fill="#444545"/><path d="m195 40.24h-7a1 1 0 0 1 0-2h7a1 1 0 0 1 0 2z" fill="#444545"/><path d="m195 62.11h-7a1 1 0 0 1 0-2h7a1 1 0 0 1 0 2z" fill="#444545"/><path d="m208.02 25.29h6.28v42.81h-6.28z" fill="#fff"/><path d="m208.02 34.07h6.28v18.84h-6.28z" fill="#f9f5b3"/><path d="m214.3 69.11h-6.3a1 1 0 0 1 -1-1v-42.95a1 1 0 0 1 1-1h6.28a1 1 0 0 1 1 1v43a1 1 0 0 1 -.98.95zm-5.28-2h4.28v-40.95h-4.3z" fill="#444545"/><path d="m214.3 35.07h-6.3a1 1 0 0 1 0-2h6.28a1 1 0 0 1 0 2z" fill="#444545"/><path d="m214.3 53.92h-6.3a1 1 0 0 1 0-2h6.28a1 1 0 0 1 0 2z" fill="#444545"/><path d="m290.67 159.08a1 1 0 0 1 -1-1v-26.25a1 1 0 1 1 2 0v26.25a1 1 0 0 1 -1 1z" fill="#90d1b8"/><path d="m298.67 159.08a1 1 0 0 1 -1-1v-7.08a1 1 0 1 1 2 0v7.12a1 1 0 0 1 -1 .96z" fill="#90d1b8"/><ellipse cx="287.96" cy="129.13" fill="#90d1b8" rx="1.93" ry="4.88" transform="matrix(.70710678 -.70710678 .70710678 .70710678 -6.96 241.44)"/><ellipse cx="301.38" cy="148.26" fill="#90d1b8" rx="4.88" ry="1.93" transform="matrix(.70710678 -.70710678 .70710678 .70710678 -16.56 256.53)"/><path d="m301.09 135.09a6.43 6.43 0 0 1 -6.42 6.41 1 1 0 0 1 -1-1 6.42 6.42 0 0 1 6.42-6.41 1 1 0 0 1 1 1z" fill="#90d1b8"/><ellipse cx="287.96" cy="143.59" fill="#90d1b8" rx="1.93" ry="4.88" transform="matrix(.70710678 -.70710678 .70710678 .70710678 -17.19 245.67)"/><path d="m294.67 159.08a1 1 0 0 1 -1-1v-17.58a1 1 0 0 1 2 0v17.58a1 1 0 0 1 -1 1z" fill="#90d1b8"/><path d="m285.79 158.08h17.76v26.63h-17.76z" fill="#fff"/><path d="m303.55 185.71h-17.76a1 1 0 0 1 -1-1v-26.63a1 1 0 0 1 1-1h17.76a1 1 0 0 1 1 1v26.63a1 1 0 0 1 -1 1zm-16.76-2h15.76v-24.63h-15.76z" fill="#444545"/><path d="m246.14 156.4h18.21v27.36h-18.21z" fill="#fff"/><path d="m264.34 184.76h-18.2a1 1 0 0 1 -1-1v-27.36a1 1 0 0 1 1-1h18.2a1 1 0 0 1 1 1v27.36a1 1 0 0 1 -1 1zm-17.2-2h16.2v-25.36h-16.2z" fill="#444545"/><path d="m255.24 180.21a5.55 5.55 0 1 1 5.55-5.55 5.56 5.56 0 0 1 -5.55 5.55zm0-9.1a3.55 3.55 0 1 0 3.55 3.55 3.55 3.55 0 0 0 -3.55-3.55z" fill="#444545"/><path d="m255.24 167.43a3.58 3.58 0 1 1 3.58-3.58 3.58 3.58 0 0 1 -3.58 3.58zm0-5.16a1.58 1.58 0 1 0 1.58 1.58 1.58 1.58 0 0 0 -1.58-1.58z" fill="#444545"/><path d="m116.76 156.4h18.21v27.36h-18.21z" fill="#fff"/><path d="m135 184.76h-18.24a1 1 0 0 1 -1-1v-27.36a1 1 0 0 1 1-1h18.24a1 1 0 0 1 1 1v27.36a1 1 0 0 1 -1 1zm-17.21-2h16.21v-25.36h-16.24z" fill="#444545"/><path d="m125.87 180.21a5.55 5.55 0 1 1 5.55-5.55 5.56 5.56 0 0 1 -5.55 5.55zm0-9.1a3.55 3.55 0 1 0 3.55 3.55 3.56 3.56 0 0 0 -3.55-3.55z" fill="#444545"/><path d="m125.87 167.43a3.58 3.58 0 1 1 3.58-3.58 3.58 3.58 0 0 1 -3.58 3.58zm0-5.16a1.58 1.58 0 1 0 1.58 1.58 1.58 1.58 0 0 0 -1.58-1.58z" fill="#444545"/><path d="m316.24 230.11h14.75v21.94h-14.75z" fill="#fff"/><path d="m331.14 253.47h-15a1 1 0 0 1 -1-1v-22.61a1 1 0 0 1 1-1h15a1 1 0 0 1 1 1v22.61a1 1 0 0 1 -1 1zm-14-2h13v-20.61h-13z" fill="#444545"/><path d="m321.74 239.4a1 1 0 0 1 -1-1v-2.82a1 1 0 0 1 2 0v2.82a1 1 0 0 1 -1 1z" fill="#444545"/><path d="m325.56 239.4a1 1 0 0 1 -1-1v-2.82a1 1 0 1 1 2 0v2.82a1 1 0 0 1 -1 1z" fill="#444545"/><path d="m321.74 247.74a1 1 0 0 1 -1-1v-2.81a1 1 0 0 1 2 0v2.81a1 1 0 0 1 -1 1z" fill="#444545"/><path d="m325.56 247.74a1 1 0 0 1 -1-1v-2.81a1 1 0 0 1 2 0v2.81a1 1 0 0 1 -1 1z" fill="#444545"/><path d="m317.91 238a24.67 24.67 0 0 1 -24.64-24.64 1 1 0 0 1 2 0 22.66 22.66 0 0 0 22.64 22.64 1 1 0 1 1 0 2z" fill="#444545"/><path d="m325.57 234.44v5.11h-5.11a2.56 2.56 0 0 1 0-5.11z" fill="#fff"/><path d="m325.57 240.55h-5.11a3.56 3.56 0 0 1 0-7.11h5.11a1 1 0 0 1 1 1v5.11a1 1 0 0 1 -1 1zm-5.11-5.11a1.56 1.56 0 0 0 0 3.11h4.11v-3.11z" fill="#444545"/><path d="m60.22 165.23h14.02v20.04h-14.02z" fill="#fff"/><path d="m68.67 166.23a1 1 0 0 1 -.37-.07 1 1 0 0 1 -.55-1.3l3.81-9.51a1 1 0 1 1 1.85.74l-3.81 9.51a1 1 0 0 1 -.93.63z" fill="#f9f5b3"/><path d="m63.07 166.23a1 1 0 0 1 -.93-.63l-3.78-9.52a1 1 0 0 1 .57-1.3 1 1 0 0 1 1.29.56l3.78 9.52a1 1 0 0 1 -.56 1.3.92.92 0 0 1 -.37.07z" fill="#a6d3f1"/><path d="m71.49 166.23a1 1 0 0 1 -.5-.14 1 1 0 0 1 -.36-1.36l6-10.34a1 1 0 1 1 1.73 1l-6 10.34a1 1 0 0 1 -.87.5z" fill="#f4848c"/><path d="m74.24 186.27h-14a1 1 0 0 1 -1-1v-20a1 1 0 0 1 1-1h14a1 1 0 0 1 1 1v20a1 1 0 0 1 -1 1zm-13-2h12v-18h-12z" fill="#444545"/><path d="m73.28 274.67-.06.24a.25.25 0 0 1 0 .07.64.64 0 0 1 -.13.17 6.58 6.58 0 0 1 -3 1.29 74.33 74.33 0 0 1 -16.38 1.48 74.33 74.33 0 0 1 -16.38-1.48 6.58 6.58 0 0 1 -3-1.29.64.64 0 0 1 -.13-.17.25.25 0 0 1 0-.07l-.06-.24c0-1.8 8.77-3.25 19.6-3.25s19.54 1.45 19.54 3.25z" fill="#fff"/><path d="m53.68 278.92c-6.7 0-12.92-.56-16.63-1.51-2.38-.59-3.13-1.19-3.49-1.59a1.69 1.69 0 0 1 -.26-.35 1 1 0 0 1 -.07-.15.76.76 0 0 1 -.06-.16l-.06-.24a1 1 0 0 1 0-.25c0-4 17.16-4.25 20.6-4.25s20.6.21 20.6 4.25a1.07 1.07 0 0 1 0 .25l-.06.23a.92.92 0 0 1 -.09.23v.07a1.73 1.73 0 0 1 -.3.41c-.32.36-1.07 1-3.46 1.55-3.8.95-10.02 1.51-16.72 1.51zm-18.4-4.27a7.7 7.7 0 0 0 2.26.82c3.56.91 9.59 1.45 16.14 1.45s12.57-.54 16.13-1.45a8.12 8.12 0 0 0 2.27-.82c-1.48-1-8.29-2.23-18.4-2.23s-16.91 1.25-18.4 2.23z" fill="#444545"/><path d="m53.68 278.92c-6.7 0-12.92-.56-16.63-1.51-2.38-.59-3.13-1.19-3.49-1.59a1.69 1.69 0 0 1 -.26-.35 1 1 0 0 1 -.07-.15.76.76 0 0 1 -.06-.16l-.06-.24a1 1 0 0 1 0-.25c0-4 17.16-4.25 20.6-4.25s20.6.21 20.6 4.25a1.07 1.07 0 0 1 0 .25l-.06.23a.92.92 0 0 1 -.09.23v.07a1.73 1.73 0 0 1 -.3.41c-.32.36-1.07 1-3.46 1.55-3.8.95-10.02 1.51-16.72 1.51zm-18.4-4.27a7.7 7.7 0 0 0 2.26.82c3.56.91 9.59 1.45 16.14 1.45s12.57-.54 16.13-1.45a8.12 8.12 0 0 0 2.27-.82c-1.48-1-8.29-2.23-18.4-2.23s-16.91 1.25-18.4 2.23z" fill="#444545"/><path d="m70.06 276.44a74.33 74.33 0 0 1 -16.38 1.48 74.33 74.33 0 0 1 -16.38-1.48 75.32 75.32 0 0 1 16.38-1.44 75.46 75.46 0 0 1 16.38 1.44z" fill="#e0e0e0"/><path d="m68.37 312.41a.22.22 0 0 1 0 .08c0 2.7-6.58 4.88-14.7 4.88s-14.67-2.18-14.67-4.88v-.05l-4.82-37.44a.64.64 0 0 0 .13.17c1.39 1.56 9.53 2.77 19.37 2.77s18-1.21 19.37-2.77a.64.64 0 0 0 .13-.17z" fill="#fff"/><path d="m53.68 318.37c-7.81 0-15.7-2-15.7-5.88l-4.8-37.38a1 1 0 0 1 1.85-.65c1.06 1.07 8 2.46 18.65 2.46s17.71-1.42 18.62-2.44a1 1 0 0 1 1.85.65l-4.8 37.31v.07c.02 3.84-7.87 5.86-15.67 5.86zm-18.25-41.45 4.57 35.39s0 .09 0 .13c0 1.63 5.33 3.93 13.7 3.93s13.59-2.25 13.69-3.83a1.13 1.13 0 0 1 0-.26l4.55-35.35c-3.64 1.36-11.25 2-18.24 2s-14.61-.64-18.27-2.01z" fill="#444545"/><path d="m326.07 24.61h54.44v54.44h-54.44z" fill="#fff"/><path d="m380.55 23.67h-54.75a1 1 0 0 0 -1 1v54.75a1 1 0 0 0 1 1h54.75a1 1 0 0 0 1-1v-54.75a1 1 0 0 0 -1-1zm-1 54.75h-52.75v-52.75h52.75z" fill="#444545"/><path d="m331.6 30.46h43.16v43.16h-43.16z" fill="#f4848c"/><path d="m360.57 74.63a1 1 0 0 1 -1-1v-6.47a1 1 0 0 1 2 0v6.47a1 1 0 0 1 -1 1z" fill="#fff"/><path d="m358.26 62.73-.92-2.14-.55-1.26-.54-1.26-6.85-15.89a1 1 0 0 0 -1.84 0l-8.85 20.55a1 1 0 0 0 .08 1 1 1 0 0 0 .84.45h17.71a1 1 0 0 0 .92-1.4zm-17.11-.6 7.33-17 6.68 15.5.54 1.26.12.27z" fill="#fff"/><path d="m353.43 67.16 7.14-16.59 7.15 16.59z" fill="#f4848c"/><path d="m368.63 66.76-7.14-16.58a1 1 0 0 0 -1.84 0l-3.4 7.89-1.09 2.53-.66 1.53-.86 2-1.13 2.63a1 1 0 0 0 .08.95 1 1 0 0 0 .83.45h14.3a1 1 0 0 0 .83-.45 1 1 0 0 0 .08-.95zm-13.69-.6.88-2 1.52-3.54 3.23-7.49 5.63 13.06z" fill="#fff"/><path d="m348.49 74.63a1 1 0 0 1 -1-1v-10.5a1 1 0 1 1 2 0v10.5a1 1 0 0 1 -1 1z" fill="#fff"/><path d="m375.47 25.38a1 1 0 0 1 -1.42 0l-20.88-20.88-.59.59-.76.77-17.82 17.81-1.71 1.71a1 1 0 0 1 -1.41-1.38l20.29-20.33 1-1a1 1 0 0 0 -.09.42 1.09 1.09 0 0 0 2.17 0 1 1 0 0 0 -.09-.42l1 1 .77.76 19.23 19.23.29.29a1 1 0 0 1 .02 1.43z" fill="#444545"/><path d="m353.17 1a2.09 2.09 0 0 0 -2.08 2.09 2.2 2.2 0 0 0 .08.58 2.09 2.09 0 0 0 1.41 1.42 2.22 2.22 0 0 0 1.18 0 2.11 2.11 0 0 0 1.42-1.41 2.21 2.21 0 0 0 .08-.59 2.09 2.09 0 0 0 -2.09-2.09zm1.09 2.09a1.09 1.09 0 0 1 -2.17 0 1 1 0 0 1 .09-.42l.27-.27a1 1 0 0 1 1.42 0l.29.29a1 1 0 0 1 .1.4z" fill="#fff"/><path d="m353.17 0a3.09 3.09 0 0 0 -2.77 4.44 3.08 3.08 0 0 0 2.77 1.73 3.09 3.09 0 1 0 0-6.17zm1.09 3.09a1.09 1.09 0 0 1 -2.17 0 1 1 0 0 1 .09-.42 1.07 1.07 0 0 1 2 0 1 1 0 0 1 .08.42z" fill="#444545"/><path d="m325.65 24.45h54.75v54.75h-54.75z" fill="#fff"/><path d="m380.4 80.2h-54.75a1 1 0 0 1 -1-1v-54.75a1 1 0 0 1 1-1h54.75a1 1 0 0 1 1 1v54.75a1 1 0 0 1 -1 1zm-53.75-2h52.75v-52.75h-52.75z" fill="#444545"/><path d="m331.45 30.24h43.16v43.16h-43.16z" fill="#a6d3f1"/><path d="m343.44 74.4a1 1 0 0 1 -1-1v-10.05a1 1 0 0 1 2 0v10.05a1 1 0 0 1 -1 1z" fill="#fff"/><path d="m343.44 64.37a6.37 6.37 0 1 1 6.37-6.37 6.38 6.38 0 0 1 -6.37 6.37zm0-10.74a4.37 4.37 0 1 0 4.37 4.37 4.37 4.37 0 0 0 -4.37-4.37z" fill="#fff"/><path d="m360.35 74.4a1 1 0 0 1 -1-1v-21.58a1 1 0 1 1 2 0v21.58a1 1 0 0 1 -1 1z" fill="#fff"/><path d="m360.35 61a1 1 0 0 1 -.7-.29l-4-4a1 1 0 0 1 0-1.41 1 1 0 0 1 1.41 0l4 4a1 1 0 0 1 0 1.41 1 1 0 0 1 -.71.29z" fill="#fff"/><path d="m360.35 52.82a9.25 9.25 0 1 1 9.25-9.25 9.26 9.26 0 0 1 -9.25 9.25zm0-16.5a7.25 7.25 0 1 0 7.25 7.25 7.27 7.27 0 0 0 -7.25-7.25z" fill="#fff"/><path d="m360.35 66.07a1 1 0 0 1 -.7-.3 1 1 0 0 1 0-1.41l3.06-3.06a1 1 0 0 1 1.41 1.41l-3.06 3.06a1 1 0 0 1 -.71.3z" fill="#fff"/><path d="m155.44 182.07h70.23v3.99h-70.23z" fill="#e0e0e0"/><path d="m158.86 175.74-3.42 6.33h70.22l-3.42-6.33z" fill="#e0e0e0"/><path d="m225.67 183.07h-70.23a1 1 0 0 1 -.88-1.47l3.42-6.33a1 1 0 0 1 .88-.53h63.38a1 1 0 0 1 .88.53l3.43 6.33a1 1 0 0 1 0 1 1 1 0 0 1 -.88.47zm-68.56-2h66.89l-2.34-4.33h-62.2z" fill="#fff"/><path d="m158.86 131.68h63.38v44.06h-63.38z" fill="#444545"/><path d="m222.24 176.74h-63.38a1 1 0 0 1 -1-1v-44.06a1 1 0 0 1 1-1h63.38a1 1 0 0 1 1 1v44.06a1 1 0 0 1 -1 1zm-62.38-2h61.38v-42.06h-61.38z" fill="#444545"/><path d="m225.67 183.07h-70.23a1 1 0 0 1 -.88-1.47l3.42-6.33a1 1 0 0 1 .88-.53h63.38a1 1 0 0 1 .88.53l3.43 6.33a1 1 0 0 1 0 1 1 1 0 0 1 -.88.47zm-68.56-2h66.89l-2.34-4.33h-62.2z" fill="#444545"/><path d="m225.67 187.07h-70.23a1 1 0 0 1 -1-1v-4a1 1 0 0 1 1-1h70.23a1 1 0 0 1 1 1v4a1 1 0 0 1 -1 1zm-69.23-2h68.23v-2h-68.23z" fill="#444545"/><path d="m162.04 134.86h57.02v37.7h-57.02z" fill="#59595a"/><path d="m360.45 179.58h-32a22 22 0 0 1 -2.61-26.92h37.25a22 22 0 0 1 -2.64 26.92z" fill="#a6d3f1"/><path d="m360.45 179.58-.45.42a21.89 21.89 0 0 1 -8.11 5.15h-14.89a22 22 0 0 1 -8.12-5.15l-.43-.45z" fill="#f9f5b3"/><path d="m351.91 186.18h-14.91a.92.92 0 0 1 -.33-.06 22.78 22.78 0 0 1 -8.49-5.38l-.42-.44a1 1 0 0 1 -.21-1.1 1 1 0 0 1 .9-.62h32a1 1 0 0 1 .92.6 1 1 0 0 1 -.19 1.08c-.14.16-.29.32-.45.47a22.69 22.69 0 0 1 -8.48 5.39 1 1 0 0 1 -.34.06zm-14.76-2h14.59a20.88 20.88 0 0 0 6.21-3.6h-27a20.93 20.93 0 0 0 6.2 3.6z" fill="#444545"/><path d="m360.45 180.58h-32a1 1 0 0 1 -.72-.31 22.92 22.92 0 0 1 .45-32.13 1 1 0 0 1 .7-.29h31.12a1 1 0 0 1 .71.29 22.92 22.92 0 0 1 .45 32.13 1 1 0 0 1 -.71.31zm-31.59-2h31.14a20.91 20.91 0 0 0 -.42-28.73h-30.31a20.92 20.92 0 0 0 -.41 28.73z" fill="#444545"/><path d="m338.75 170a5.17 5.17 0 0 1 -4.48-2.59 5.18 5.18 0 0 1 9 0 5.15 5.15 0 0 1 -4.52 2.59z" fill="#f9f5b3"/><path d="m347.71 164.85v5.15a5.18 5.18 0 0 1 -4.48-2.59 5.17 5.17 0 0 1 4.48-2.56z" fill="#f9f5b3"/><path d="m360.49 180.58a1 1 0 0 1 0-2 1 1 0 0 1 1 1 1 1 0 0 1 -1 1z" fill="#444545"/><path d="m328.42 180.58a1 1 0 1 1 1-1 1 1 0 0 1 -1.01 1z" fill="#444545"/><path d="m353 180.58a1 1 0 0 1 -1-1v-17a1 1 0 0 1 2 0v17a1 1 0 0 1 -1 1z" fill="#444545"/><path d="m356.81 180.58a1 1 0 0 1 -1-1v-11.79a1 1 0 0 1 2 0v11.79a1 1 0 0 1 -1 1z" fill="#444545"/><path d="m349.81 180.58a1 1 0 0 1 -1-1v-6.64a1 1 0 0 1 2 0v6.64a1 1 0 0 1 -1 1z" fill="#444545"/><circle cx="328.99" cy="163.19" fill="#fff" r="1.89"/><path d="m329 166.08a2.89 2.89 0 1 1 2.88-2.89 2.89 2.89 0 0 1 -2.88 2.89zm0-3.77a.89.89 0 1 0 .88.88.88.88 0 0 0 -.88-.88z" fill="#444545"/><circle cx="334.27" cy="155.81" fill="#fff" r="2.49"/><path d="m334.27 159.3a3.5 3.5 0 1 1 3.5-3.49 3.49 3.49 0 0 1 -3.5 3.49zm0-5a1.5 1.5 0 1 0 1.5 1.5 1.5 1.5 0 0 0 -1.5-1.49z" fill="#444545"/><path d="m338.75 171a6.16 6.16 0 0 1 -5.34-3.09 1 1 0 0 1 0-1 6.18 6.18 0 0 1 10.69 0 1 1 0 0 1 0 1 6.19 6.19 0 0 1 -5.35 3.09zm-3.27-3.59a4.17 4.17 0 0 0 6.55 0 4.18 4.18 0 0 0 -6.55 0z" fill="#444545"/><path d="m347.71 171a6.17 6.17 0 0 1 -5.34-3.09 1 1 0 0 1 0-1 6.19 6.19 0 0 1 5.34-3.08 1 1 0 0 1 1 1v5.17a1 1 0 0 1 -1 1zm-3.27-3.59a4.16 4.16 0 0 0 2.27 1.47v-2.88a4.2 4.2 0 0 0 -2.27 1.43z" fill="#444545"/></svg>